<svg xmlns="http://www.w3.org/2000/svg" width="144" height="25.064" viewBox="0 0 144 25.064"><g transform="translate(-512.271 -548.628)"><path d="M519.484,548.832c-.514-.053-5.361-.075-6.135,0-.808.075-1.079.416-1.079,1.256v22.594c0,1.025.7,1,1.418,1.038.488.029,5.128.029,5.644-.009,1.089-.077,1.141-.63,1.151-1.58.014-1.624,0-20.5,0-22.123,0-.761-.192-1.093-1-1.177" transform="translate(0 -0.049)" fill="#fff"/><path d="M560.264,570.988a5.978,5.978,0,0,0-2.249-8.784c-2.328-1.274-14.5-5.219-17.013-6.219-.7-.284-.9-.595-.8-1.013.1-.488.8-.482,1.106-.487.261,0,2.779.016,17.9.073.849.008,1.24-.208,1.339-1.08.05-.436.021-2.986,0-3.264-.031-.973-.184-1.382-1.3-1.382-1.236,0-16.093-.065-20.765.113-5.239.184-6.789,2.645-7.157,5.158a5.965,5.965,0,0,0,2.911,6.215c2.245,1.364,9.982,3.751,17.129,6.326,1.148.409,1.248.815,1.061,1.2-.12.251-.635.292-1.32.307-1.78.016-16.973-.227-17.879-.211-1.11.031-1.317.358-1.338,1.521-.009.268,0,2.352,0,2.661.01,1.073.2,1.475,1.276,1.493,6.435.06,17.528.118,19.887.042,3.725-.122,5.78-.752,7.205-2.667" transform="translate(-5.979 -0.061)" fill="#fff"/><path d="M659.372,551.97c-.938-2.206-2.877-3.094-6.806-3.229-3.038-.11-20.35-.017-20.76,0-1.217.012-1.3.49-1.319,1.563,0,.277,0,2.706.038,3.118.077.885.669.981,1.295.981.4,0,17.141-.11,18.283-.1.54,0,.762.181.793.527.031.295-.144.479-.536.662-5.145,2.371-13.753,6.1-16.315,7.359-3.74,1.819-4.6,3.939-4.4,6.063.227,2.358,1.665,4.459,6.96,4.634,4.642.142,17.946-.051,21.206-.127,1.181-.031,1.236-.464,1.328-1.291.045-.362.023-2.216.023-2.5-.023-1.478-.17-1.833-1.471-1.819-1,.014-14.038.268-17.753.226-.593-.009-.76-.319-.563-.662.127-.216.518-.42,1.256-.751,3.115-1.4,11.677-4.947,15.984-7.536,2.554-1.531,4.009-4.21,2.761-7.107" transform="translate(-36.959 -0.019)" fill="#fff"/><path d="M609.02,548.765c-.759-.058-5.441-.061-5.923-.006-.593.068-1.122.165-1.122,1.276v13.253c0,2.613-.425,4.367-3.616,4.575a29.525,29.525,0,0,1-5.038-.037c-3.031-.28-3.609-1.309-3.609-4.96,0-2.274.021-11.71.021-12.633s-.1-1.408-1.215-1.451c-.782-.03-5.192-.035-5.684,0-.586.03-1.174.153-1.174,1.291,0,.682-.06,8.492,0,15.027.076,8.421,5.826,8.216,8.521,8.442,1.637.146,8.909.167,12.146-.067,5.894-.436,7.511-3.474,7.647-7.761.084-2.826.156-13.008.113-15.5-.009-.928-.158-1.376-1.067-1.443" transform="translate(-21.846 -0.029)" fill="#fff"/><path d="M709.452,550.016c0-.832-.191-1.286-1.089-1.35-.839-.062-5.31-.036-5.719-.007-.949.08-1.188.354-1.212,1.239-.01.715-.01,11.95-.049,13.954-.066,2.939-1.043,3.33-2.449,3.692a36.131,36.131,0,0,1-6.569.183c-1.774-.243-2.9-.943-2.942-3.856-.034-2.8-.033-13.024-.033-13.947,0-.893-.377-1.184-1.145-1.234-.675-.033-4.849-.049-5.833.01-1.165.068-1.217.551-1.228,1.43-.028,1.72-.061,13.951.118,16,.436,4.834,2.792,6.8,6.9,7.15,3.809.315,12.891.368,15.637-.274,4.445-1.039,5.346-4.514,5.558-8.894.1-2.311.051-13.038.051-14.1" transform="translate(-53.195)" fill="#fff"/></g></svg>